<svg xmlns="http://www.w3.org/2000/svg" xmlns:xlink="http://www.w3.org/1999/xlink" width="393" zoomAndPan="magnify" viewBox="0 0 294.75 120.749998" height="161" preserveAspectRatio="xMidYMid meet" version="1.0"><defs><g/><clipPath id="2fea93c3c6"><path d="M 29 50.113281 L 88 50.113281 L 88 119 L 29 119 Z M 29 50.113281 " clip-rule="nonzero"/></clipPath><clipPath id="6c3b51c630"><path d="M 36 1 L 49 1 L 49 20 L 36 20 Z M 36 1 " clip-rule="nonzero"/></clipPath><clipPath id="2b3c3b71af"><path d="M 0.683594 3.703125 L 78.4375 0.078125 L 83.523438 109.234375 L 5.769531 112.855469 Z M 0.683594 3.703125 " clip-rule="nonzero"/></clipPath><clipPath id="490986f1bd"><path d="M 0.683594 3.703125 L 78.4375 0.078125 L 83.523438 109.234375 L 5.769531 112.855469 Z M 0.683594 3.703125 " clip-rule="nonzero"/></clipPath><clipPath id="f86ac693a5"><path d="M 0.683594 3.703125 L 78.4375 0.078125 L 83.523438 109.234375 L 5.769531 112.855469 Z M 0.683594 3.703125 " clip-rule="nonzero"/></clipPath><clipPath id="f522802d1a"><path d="M 58 27 L 76 27 L 76 42 L 58 42 Z M 58 27 " clip-rule="nonzero"/></clipPath><clipPath id="d4a49212e8"><path d="M 0.683594 3.703125 L 78.4375 0.078125 L 83.523438 109.234375 L 5.769531 112.855469 Z M 0.683594 3.703125 " clip-rule="nonzero"/></clipPath><clipPath id="43be7d25a6"><path d="M 0.683594 3.703125 L 78.4375 0.078125 L 83.523438 109.234375 L 5.769531 112.855469 Z M 0.683594 3.703125 " clip-rule="nonzero"/></clipPath><clipPath id="693db44ebb"><path d="M 0.683594 3.703125 L 78.4375 0.078125 L 83.523438 109.234375 L 5.769531 112.855469 Z M 0.683594 3.703125 " clip-rule="nonzero"/></clipPath><clipPath id="16371e0649"><path d="M 10 30 L 29 30 L 29 43 L 10 43 Z M 10 30 " clip-rule="nonzero"/></clipPath><clipPath id="83f4bf5b91"><path d="M 0.683594 3.703125 L 78.4375 0.078125 L 83.523438 109.234375 L 5.769531 112.855469 Z M 0.683594 3.703125 " clip-rule="nonzero"/></clipPath><clipPath id="ddf53ec61e"><path d="M 0.683594 3.703125 L 78.4375 0.078125 L 83.523438 109.234375 L 5.769531 112.855469 Z M 0.683594 3.703125 " clip-rule="nonzero"/></clipPath><clipPath id="894745b952"><path d="M 0.683594 3.703125 L 78.4375 0.078125 L 83.523438 109.234375 L 5.769531 112.855469 Z M 0.683594 3.703125 " clip-rule="nonzero"/></clipPath><clipPath id="4b3e4f04bd"><path d="M 11 39 L 81 39 L 81 112 L 11 112 Z M 11 39 " clip-rule="nonzero"/></clipPath><clipPath id="ee417882d0"><path d="M 0.683594 3.703125 L 78.4375 0.078125 L 83.523438 109.234375 L 5.769531 112.855469 Z M 0.683594 3.703125 " clip-rule="nonzero"/></clipPath><clipPath id="9d53d4b8ae"><path d="M 0.683594 3.703125 L 78.4375 0.078125 L 83.523438 109.234375 L 5.769531 112.855469 Z M 0.683594 3.703125 " clip-rule="nonzero"/></clipPath><clipPath id="7cfe819b16"><path d="M 0.683594 3.703125 L 78.4375 0.078125 L 83.523438 109.234375 L 5.769531 112.855469 Z M 0.683594 3.703125 " clip-rule="nonzero"/></clipPath><clipPath id="0ffe5cf6b7"><path d="M 39 49 L 54 49 L 54 65 L 39 65 Z M 39 49 " clip-rule="nonzero"/></clipPath><clipPath id="812d0c15e2"><path d="M 0.683594 3.703125 L 78.4375 0.078125 L 83.523438 109.234375 L 5.769531 112.855469 Z M 0.683594 3.703125 " clip-rule="nonzero"/></clipPath><clipPath id="ff2b2a2c3b"><path d="M 0.683594 3.703125 L 78.4375 0.078125 L 83.523438 109.234375 L 5.769531 112.855469 Z M 0.683594 3.703125 " clip-rule="nonzero"/></clipPath><clipPath id="020e630736"><path d="M 0.683594 3.703125 L 78.4375 0.078125 L 83.523438 109.234375 L 5.769531 112.855469 Z M 0.683594 3.703125 " clip-rule="nonzero"/></clipPath><clipPath id="427c909756"><path d="M 40 49 L 54 49 L 54 65 L 40 65 Z M 40 49 " clip-rule="nonzero"/></clipPath><clipPath id="4d6bca76b3"><path d="M 0.683594 3.703125 L 78.4375 0.078125 L 83.523438 109.234375 L 5.769531 112.855469 Z M 0.683594 3.703125 " clip-rule="nonzero"/></clipPath><clipPath id="87ab951125"><path d="M 0.683594 3.703125 L 78.4375 0.078125 L 83.523438 109.234375 L 5.769531 112.855469 Z M 0.683594 3.703125 " clip-rule="nonzero"/></clipPath><clipPath id="c590802686"><path d="M 0.683594 3.703125 L 78.4375 0.078125 L 83.523438 109.234375 L 5.769531 112.855469 Z M 0.683594 3.703125 " clip-rule="nonzero"/></clipPath><clipPath id="02a03ab71a"><path d="M 39.941406 50.234375 L 53.003906 49.625 L 53.679688 64.164062 L 40.621094 64.773438 Z M 39.941406 50.234375 " clip-rule="nonzero"/></clipPath><clipPath id="95e1e3558e"><path d="M 39.941406 50.234375 L 53.003906 49.625 L 53.679688 64.164062 L 40.621094 64.773438 Z M 39.941406 50.234375 " clip-rule="nonzero"/></clipPath><clipPath id="4fbe0aca37"><path d="M 39.941406 50.234375 L 53.003906 49.625 L 53.679688 64.164062 L 40.621094 64.773438 Z M 39.941406 50.234375 " clip-rule="nonzero"/></clipPath><clipPath id="b77e758ccb"><path d="M 47.203125 64.292969 C 44.332031 64.425781 41.625 62.367188 40.753906 59.136719 C 39.726562 55.335938 41.636719 51.355469 45.015625 50.246094 C 45.523438 50.078125 46.035156 49.988281 46.542969 49.964844 C 49.414062 49.828125 52.125 51.890625 52.996094 55.121094 C 54.019531 58.921875 52.109375 62.902344 48.730469 64.011719 C 48.222656 64.175781 47.710938 64.269531 47.203125 64.292969 " clip-rule="nonzero"/></clipPath><clipPath id="b354017258"><path d="M 39.941406 50.234375 L 53.003906 49.625 L 53.679688 64.164062 L 40.621094 64.773438 Z M 39.941406 50.234375 " clip-rule="nonzero"/></clipPath><clipPath id="21611d4b83"><path d="M 47.203125 64.292969 C 44.332031 64.425781 41.625 62.367188 40.753906 59.136719 C 39.726562 55.335938 41.636719 51.355469 45.015625 50.246094 C 45.523438 50.078125 46.035156 49.988281 46.542969 49.964844 C 49.414062 49.828125 52.125 51.890625 52.996094 55.121094 C 54.019531 58.921875 52.109375 62.902344 48.730469 64.011719 C 48.222656 64.175781 47.710938 64.269531 47.203125 64.292969 " clip-rule="nonzero"/></clipPath><clipPath id="9b339581b1"><path d="M 53.589844 49.636719 L 39.492188 50.292969 L 40.160156 64.621094 L 54.257812 63.964844 Z M 53.589844 49.636719 " clip-rule="nonzero"/></clipPath><radialGradient gradientTransform="matrix(0.0465489, 0.99902, -0.998812, 0.0465393, 46.00314, 38.064031)" gradientUnits="userSpaceOnUse" r="15.501899" cx="0" id="26f25be26a" cy="0" fx="0" fy="0"><stop stop-opacity="1" stop-color="rgb(99.804688%, 99.804688%, 99.804688%)" offset="0"/><stop stop-opacity="1" stop-color="rgb(99.427795%, 99.427795%, 99.427795%)" offset="0.0078125"/><stop stop-opacity="1" stop-color="rgb(99.200439%, 99.200439%, 99.200439%)" offset="0.0195312"/><stop stop-opacity="1" stop-color="rgb(98.970032%, 98.970032%, 98.970032%)" offset="0.0234375"/><stop stop-opacity="1" stop-color="rgb(98.591614%, 98.591614%, 98.591614%)" offset="0.0351562"/><stop stop-opacity="1" stop-color="rgb(98.399353%, 98.399353%, 98.399353%)" offset="0.0390625"/><stop stop-opacity="1" stop-color="rgb(98.205566%, 98.205566%, 98.205566%)" offset="0.0429688"/><stop stop-opacity="1" stop-color="rgb(98.005676%, 98.005676%, 98.005676%)" offset="0.046875"/><stop stop-opacity="1" stop-color="rgb(97.814941%, 97.814941%, 97.814941%)" offset="0.0507812"/><stop stop-opacity="1" stop-color="rgb(97.463989%, 97.444153%, 97.444153%)" offset="0.0546875"/><stop stop-opacity="1" stop-color="rgb(97.283936%, 97.077942%, 97.077942%)" offset="0.0664062"/><stop stop-opacity="1" stop-color="rgb(97.084045%, 96.888733%, 96.888733%)" offset="0.0703125"/><stop stop-opacity="1" stop-color="rgb(96.893311%, 96.688843%, 96.688843%)" offset="0.0742188"/><stop stop-opacity="1" stop-color="rgb(96.69342%, 96.498108%, 96.498108%)" offset="0.078125"/><stop stop-opacity="1" stop-color="rgb(96.499634%, 96.30127%, 96.30127%)" offset="0.0820312"/><stop stop-opacity="1" stop-color="rgb(96.307373%, 96.102905%, 96.102905%)" offset="0.0859375"/><stop stop-opacity="1" stop-color="rgb(96.107483%, 95.91217%, 95.91217%)" offset="0.0898438"/><stop stop-opacity="1" stop-color="rgb(95.916748%, 95.710754%, 95.710754%)" offset="0.09375"/><stop stop-opacity="1" stop-color="rgb(95.53833%, 95.52002%, 95.52002%)" offset="0.0976562"/><stop stop-opacity="1" stop-color="rgb(95.297241%, 95.297241%, 95.297241%)" offset="0.101562"/><stop stop-opacity="1" stop-color="rgb(95.075989%, 95.075989%, 95.075989%)" offset="0.105469"/><stop stop-opacity="1" stop-color="rgb(94.885254%, 94.885254%, 94.885254%)" offset="0.109375"/><stop stop-opacity="1" stop-color="rgb(94.685364%, 94.685364%, 94.685364%)" offset="0.113281"/><stop stop-opacity="1" stop-color="rgb(94.494629%, 94.494629%, 94.494629%)" offset="0.117188"/><stop stop-opacity="1" stop-color="rgb(94.294739%, 94.294739%, 94.294739%)" offset="0.121094"/><stop stop-opacity="1" stop-color="rgb(94.099426%, 93.904114%, 94.099426%)" offset="0.125"/><stop stop-opacity="1" stop-color="rgb(93.908691%, 93.704224%, 93.908691%)" offset="0.128906"/><stop stop-opacity="1" stop-color="rgb(93.708801%, 93.513489%, 93.522644%)" offset="0.132812"/><stop stop-opacity="1" stop-color="rgb(93.518066%, 93.313599%, 93.313599%)" offset="0.136719"/><stop stop-opacity="1" stop-color="rgb(93.318176%, 93.122864%, 93.122864%)" offset="0.140625"/><stop stop-opacity="1" stop-color="rgb(93.077087%, 92.900085%, 92.900085%)" offset="0.144531"/><stop stop-opacity="1" stop-color="rgb(92.677307%, 92.663574%, 92.677307%)" offset="0.148438"/><stop stop-opacity="1" stop-color="rgb(92.489624%, 92.33551%, 92.489624%)" offset="0.152344"/><stop stop-opacity="1" stop-color="rgb(92.340088%, 92.190552%, 92.330933%)" offset="0.15625"/><stop stop-opacity="1" stop-color="rgb(92.196655%, 91.990662%, 91.990662%)" offset="0.160156"/><stop stop-opacity="1" stop-color="rgb(91.998291%, 91.799927%, 91.799927%)" offset="0.164062"/><stop stop-opacity="1" stop-color="rgb(91.801453%, 91.60614%, 91.60614%)" offset="0.167969"/><stop stop-opacity="1" stop-color="rgb(91.610718%, 91.404724%, 91.404724%)" offset="0.171875"/><stop stop-opacity="1" stop-color="rgb(91.226196%, 91.213989%, 91.213989%)" offset="0.175781"/><stop stop-opacity="1" stop-color="rgb(91.014099%, 90.835571%, 90.835571%)" offset="0.179688"/><stop stop-opacity="1" stop-color="rgb(90.823364%, 90.618896%, 90.618896%)" offset="0.183594"/><stop stop-opacity="1" stop-color="rgb(90.603638%, 90.39917%, 90.39917%)" offset="0.1875"/><stop stop-opacity="1" stop-color="rgb(90.362549%, 90.182495%, 90.182495%)" offset="0.191406"/><stop stop-opacity="1" stop-color="rgb(89.982605%, 89.971924%, 89.971924%)" offset="0.195312"/><stop stop-opacity="1" stop-color="rgb(89.793396%, 89.587402%, 89.587402%)" offset="0.199219"/><stop stop-opacity="1" stop-color="rgb(89.593506%, 89.398193%, 89.398193%)" offset="0.203125"/><stop stop-opacity="1" stop-color="rgb(89.399719%, 89.201355%, 89.201355%)" offset="0.207031"/><stop stop-opacity="1" stop-color="rgb(89.207458%, 88.81073%, 89.002991%)" offset="0.210938"/><stop stop-opacity="1" stop-color="rgb(88.819885%, 88.606262%, 88.812256%)" offset="0.214844"/><stop stop-opacity="1" stop-color="rgb(88.61084%, 88.415527%, 88.42926%)" offset="0.21875"/><stop stop-opacity="1" stop-color="rgb(88.420105%, 88.215637%, 88.215637%)" offset="0.222656"/><stop stop-opacity="1" stop-color="rgb(88.197327%, 87.980652%, 87.980652%)" offset="0.226562"/><stop stop-opacity="1" stop-color="rgb(87.962341%, 87.631226%, 87.631226%)" offset="0.230469"/><stop stop-opacity="1" stop-color="rgb(87.635803%, 87.484741%, 87.484741%)" offset="0.234375"/><stop stop-opacity="1" stop-color="rgb(87.489319%, 87.275696%, 87.284851%)" offset="0.238281"/><stop stop-opacity="1" stop-color="rgb(87.284851%, 86.889648%, 87.094116%)" offset="0.242188"/><stop stop-opacity="1" stop-color="rgb(86.894226%, 86.698914%, 86.894226%)" offset="0.246094"/><stop stop-opacity="1" stop-color="rgb(86.698914%, 86.503601%, 86.503601%)" offset="0.25"/><stop stop-opacity="1" stop-color="rgb(86.508179%, 86.303711%, 86.303711%)" offset="0.253906"/><stop stop-opacity="1" stop-color="rgb(86.308289%, 86.112976%, 86.112976%)" offset="0.257812"/><stop stop-opacity="1" stop-color="rgb(86.117554%, 85.731506%, 85.731506%)" offset="0.261719"/><stop stop-opacity="1" stop-color="rgb(85.740662%, 85.517883%, 85.517883%)" offset="0.265625"/><stop stop-opacity="1" stop-color="rgb(85.501099%, 85.276794%, 85.276794%)" offset="0.269531"/><stop stop-opacity="1" stop-color="rgb(85.26001%, 84.877014%, 84.877014%)" offset="0.273438"/><stop stop-opacity="1" stop-color="rgb(84.881592%, 84.686279%, 84.686279%)" offset="0.277344"/><stop stop-opacity="1" stop-color="rgb(84.690857%, 84.47876%, 84.486389%)" offset="0.28125"/><stop stop-opacity="1" stop-color="rgb(84.487915%, 84.091187%, 84.295654%)" offset="0.285156"/><stop stop-opacity="1" stop-color="rgb(84.09729%, 83.898926%, 84.09729%)" offset="0.289062"/><stop stop-opacity="1" stop-color="rgb(83.900452%, 83.705139%, 83.706665%)" offset="0.292969"/><stop stop-opacity="1" stop-color="rgb(83.709717%, 83.31604%, 83.505249%)" offset="0.296875"/><stop stop-opacity="1" stop-color="rgb(83.509827%, 83.110046%, 83.314514%)" offset="0.300781"/><stop stop-opacity="1" stop-color="rgb(83.319092%, 82.919312%, 82.93457%)" offset="0.304688"/><stop stop-opacity="1" stop-color="rgb(82.945251%, 82.588196%, 82.719421%)" offset="0.308594"/><stop stop-opacity="1" stop-color="rgb(82.70874%, 82.397461%, 82.528687%)" offset="0.3125"/><stop stop-opacity="1" stop-color="rgb(82.518005%, 82.164001%, 82.17926%)" offset="0.316406"/><stop stop-opacity="1" stop-color="rgb(82.183838%, 81.784058%, 81.988525%)" offset="0.320312"/><stop stop-opacity="1" stop-color="rgb(81.993103%, 81.593323%, 81.782532%)" offset="0.324219"/><stop stop-opacity="1" stop-color="rgb(81.791687%, 81.391907%, 81.393433%)" offset="0.328125"/><stop stop-opacity="1" stop-color="rgb(81.401062%, 81.001282%, 81.199646%)" offset="0.332031"/><stop stop-opacity="1" stop-color="rgb(81.202698%, 80.802917%, 81.007385%)" offset="0.335938"/><stop stop-opacity="1" stop-color="rgb(81.011963%, 80.612183%, 80.619812%)" offset="0.339844"/><stop stop-opacity="1" stop-color="rgb(80.628967%, 80.229187%, 80.410767%)" offset="0.34375"/><stop stop-opacity="1" stop-color="rgb(80.415344%, 80.015564%, 80.220032%)" offset="0.347656"/><stop stop-opacity="1" stop-color="rgb(80.175781%, 79.774475%, 79.820251%)" offset="0.351562"/><stop stop-opacity="1" stop-color="rgb(79.776001%, 79.374695%, 79.580688%)" offset="0.355469"/><stop stop-opacity="1" stop-color="rgb(79.585266%, 79.185486%, 79.367065%)" offset="0.359375"/><stop stop-opacity="1" stop-color="rgb(79.376221%, 78.97644%, 78.97644%)" offset="0.363281"/><stop stop-opacity="1" stop-color="rgb(78.990173%, 78.590393%, 78.590393%)" offset="0.367188"/><stop stop-opacity="1" stop-color="rgb(78.604126%, 78.204346%, 78.204346%)" offset="0.375"/><stop stop-opacity="1" stop-color="rgb(78.213501%, 77.813721%, 77.813721%)" offset="0.378906"/><stop stop-opacity="1" stop-color="rgb(77.822876%, 77.468872%, 77.607727%)" offset="0.382812"/><stop stop-opacity="1" stop-color="rgb(77.612305%, 77.310181%, 77.462769%)" offset="0.386719"/><stop stop-opacity="1" stop-color="rgb(77.46582%, 77.122498%, 77.13623%)" offset="0.390625"/><stop stop-opacity="1" stop-color="rgb(77.116394%, 76.722717%, 76.899719%)" offset="0.394531"/><stop stop-opacity="1" stop-color="rgb(76.881409%, 76.481628%, 76.660156%)" offset="0.398438"/><stop stop-opacity="1" stop-color="rgb(76.669312%, 76.269531%, 76.281738%)" offset="0.402344"/><stop stop-opacity="1" stop-color="rgb(76.286316%, 75.886536%, 76.091003%)" offset="0.40625"/><stop stop-opacity="1" stop-color="rgb(76.095581%, 75.695801%, 75.888062%)" offset="0.410156"/><stop stop-opacity="1" stop-color="rgb(75.897217%, 75.497437%, 75.497437%)" offset="0.414062"/><stop stop-opacity="1" stop-color="rgb(75.506592%, 75.106812%, 75.106812%)" offset="0.417969"/><stop stop-opacity="1" stop-color="rgb(75.305176%, 74.716187%, 74.905396%)" offset="0.421875"/><stop stop-opacity="1" stop-color="rgb(75.114441%, 74.510193%, 74.714661%)" offset="0.425781"/><stop stop-opacity="1" stop-color="rgb(74.734497%, 74.319458%, 74.334717%)" offset="0.429688"/><stop stop-opacity="1" stop-color="rgb(74.343872%, 73.944092%, 74.119568%)" offset="0.433594"/><stop stop-opacity="1" stop-color="rgb(74.102783%, 73.703003%, 73.878479%)" offset="0.4375"/><stop stop-opacity="1" stop-color="rgb(73.86322%, 73.46344%, 73.46344%)" offset="0.441406"/><stop stop-opacity="1" stop-color="rgb(73.483276%, 73.072815%, 73.083496%)" offset="0.445312"/><stop stop-opacity="1" stop-color="rgb(73.292542%, 72.688293%, 72.892761%)" offset="0.449219"/><stop stop-opacity="1" stop-color="rgb(73.091125%, 72.497559%, 72.691345%)" offset="0.453125"/><stop stop-opacity="1" stop-color="rgb(72.7005%, 72.351074%, 72.351074%)" offset="0.457031"/><stop stop-opacity="1" stop-color="rgb(72.502136%, 72.009277%, 72.201538%)" offset="0.460938"/><stop stop-opacity="1" stop-color="rgb(72.358704%, 71.806335%, 72.010803%)" offset="0.464844"/><stop stop-opacity="1" stop-color="rgb(72.026062%, 71.615601%, 71.629333%)" offset="0.46875"/><stop stop-opacity="1" stop-color="rgb(71.638489%, 71.238708%, 71.238708%)" offset="0.472656"/><stop stop-opacity="1" stop-color="rgb(71.3974%, 70.820618%, 70.99762%)" offset="0.476562"/><stop stop-opacity="1" stop-color="rgb(71.156311%, 70.579529%, 70.756531%)" offset="0.480469"/><stop stop-opacity="1" stop-color="rgb(70.779419%, 70.365906%, 70.379639%)" offset="0.484375"/><stop stop-opacity="1" stop-color="rgb(70.59021%, 69.975281%, 70.188904%)" offset="0.488281"/><stop stop-opacity="1" stop-color="rgb(70.385742%, 69.589233%, 69.984436%)" offset="0.492188"/><stop stop-opacity="1" stop-color="rgb(69.995117%, 69.398499%, 69.593811%)" offset="0.496094"/><stop stop-opacity="1" stop-color="rgb(69.604492%, 69.203186%, 69.203186%)" offset="0.5"/><stop stop-opacity="1" stop-color="rgb(69.403076%, 68.812561%, 69.003296%)" offset="0.503906"/><stop stop-opacity="1" stop-color="rgb(69.212341%, 68.608093%, 68.812561%)" offset="0.507812"/><stop stop-opacity="1" stop-color="rgb(68.832397%, 68.417358%, 68.432617%)" offset="0.511719"/><stop stop-opacity="1" stop-color="rgb(68.617249%, 68.041992%, 68.041992%)" offset="0.515625"/><stop stop-opacity="1" stop-color="rgb(68.37616%, 67.672729%, 67.805481%)" offset="0.519531"/><stop stop-opacity="1" stop-color="rgb(67.964172%, 67.481995%, 67.614746%)" offset="0.523438"/><stop stop-opacity="1" stop-color="rgb(67.636108%, 67.269897%, 67.269897%)" offset="0.527344"/><stop stop-opacity="1" stop-color="rgb(67.49115%, 66.879272%, 66.886902%)" offset="0.53125"/><stop stop-opacity="1" stop-color="rgb(67.288208%, 66.491699%, 66.696167%)" offset="0.535156"/><stop stop-opacity="1" stop-color="rgb(66.897583%, 66.299438%, 66.497803%)" offset="0.539062"/><stop stop-opacity="1" stop-color="rgb(66.506958%, 66.105652%, 66.107178%)" offset="0.542969"/><stop stop-opacity="1" stop-color="rgb(66.305542%, 65.716553%, 65.905762%)" offset="0.546875"/><stop stop-opacity="1" stop-color="rgb(66.114807%, 65.325928%, 65.715027%)" offset="0.550781"/><stop stop-opacity="1" stop-color="rgb(65.734863%, 65.113831%, 65.335083%)" offset="0.554688"/><stop stop-opacity="1" stop-color="rgb(65.519714%, 64.923096%, 64.944458%)" offset="0.558594"/><stop stop-opacity="1" stop-color="rgb(65.278625%, 64.503479%, 64.703369%)" offset="0.5625"/><stop stop-opacity="1" stop-color="rgb(64.863586%, 64.079285%, 64.463806%)" offset="0.566406"/><stop stop-opacity="1" stop-color="rgb(64.483643%, 63.88855%, 64.073181%)" offset="0.570312"/><stop stop-opacity="1" stop-color="rgb(64.292908%, 63.682556%, 63.68866%)" offset="0.574219"/><stop stop-opacity="1" stop-color="rgb(64.091492%, 63.291931%, 63.497925%)" offset="0.578125"/><stop stop-opacity="1" stop-color="rgb(63.700867%, 62.901306%, 63.301086%)" offset="0.582031"/><stop stop-opacity="1" stop-color="rgb(63.310242%, 62.702942%, 62.910461%)" offset="0.585938"/><stop stop-opacity="1" stop-color="rgb(63.1073%, 62.557983%, 62.565613%)" offset="0.589844"/><stop stop-opacity="1" stop-color="rgb(62.916565%, 62.225342%, 62.408447%)" offset="0.59375"/><stop stop-opacity="1" stop-color="rgb(62.582397%, 61.837769%, 62.220764%)" offset="0.597656"/><stop stop-opacity="1" stop-color="rgb(62.214661%, 61.59668%, 61.79657%)" offset="0.601562"/><stop stop-opacity="1" stop-color="rgb(61.979675%, 61.357117%, 61.375427%)" offset="0.605469"/><stop stop-opacity="1" stop-color="rgb(61.766052%, 60.966492%, 61.184692%)" offset="0.609375"/><stop stop-opacity="1" stop-color="rgb(61.375427%, 60.585022%, 60.975647%)" offset="0.613281"/><stop stop-opacity="1" stop-color="rgb(60.98938%, 60.394287%, 60.585022%)" offset="0.617188"/><stop stop-opacity="1" stop-color="rgb(60.798645%, 60.194397%, 60.194397%)" offset="0.621094"/><stop stop-opacity="1" stop-color="rgb(60.603333%, 59.803772%, 59.803772%)" offset="0.625"/><stop stop-opacity="1" stop-color="rgb(60.212708%, 59.413147%, 59.603882%)" offset="0.628906"/><stop stop-opacity="1" stop-color="rgb(59.822083%, 59.022522%, 59.413147%)" offset="0.632812"/><stop stop-opacity="1" stop-color="rgb(59.613037%, 58.813477%, 59.031677%)" offset="0.636719"/><stop stop-opacity="1" stop-color="rgb(59.422302%, 58.622742%, 58.641052%)" offset="0.640625"/><stop stop-opacity="1" stop-color="rgb(59.00116%, 58.200073%, 58.399963%)" offset="0.644531"/><stop stop-opacity="1" stop-color="rgb(58.576965%, 57.777405%, 58.1604%)" offset="0.648438"/><stop stop-opacity="1" stop-color="rgb(58.38623%, 57.589722%, 57.772827%)" offset="0.652344"/><stop stop-opacity="1" stop-color="rgb(58.178711%, 57.43103%, 57.440186%)" offset="0.65625"/><stop stop-opacity="1" stop-color="rgb(57.788086%, 57.087708%, 57.296753%)" offset="0.660156"/><stop stop-opacity="1" stop-color="rgb(57.447815%, 56.697083%, 57.098389%)" offset="0.664062"/><stop stop-opacity="1" stop-color="rgb(57.299805%, 56.500244%, 56.707764%)" offset="0.667969"/><stop stop-opacity="1" stop-color="rgb(57.110596%, 56.309509%, 56.317139%)" offset="0.671875"/><stop stop-opacity="1" stop-color="rgb(56.726074%, 55.926514%, 55.926514%)" offset="0.675781"/><stop stop-opacity="1" stop-color="rgb(56.335449%, 55.535889%, 55.714417%)" offset="0.679688"/><stop stop-opacity="1" stop-color="rgb(55.944824%, 55.145264%, 55.523682%)" offset="0.683594"/><stop stop-opacity="1" stop-color="rgb(55.703735%, 54.904175%, 55.104065%)" offset="0.6875"/><stop stop-opacity="1" stop-color="rgb(55.462646%, 54.663086%, 54.678345%)" offset="0.691406"/><stop stop-opacity="1" stop-color="rgb(55.072021%, 54.272461%, 54.48761%)" offset="0.695312"/><stop stop-opacity="1" stop-color="rgb(54.6875%, 53.881836%, 54.281616%)" offset="0.699219"/><stop stop-opacity="1" stop-color="rgb(54.498291%, 53.492737%, 53.890991%)" offset="0.703125"/><stop stop-opacity="1" stop-color="rgb(54.301453%, 53.29895%, 53.500366%)" offset="0.707031"/><stop stop-opacity="1" stop-color="rgb(53.910828%, 53.106689%, 53.109741%)" offset="0.710938"/><stop stop-opacity="1" stop-color="rgb(53.520203%, 52.719116%, 52.906799%)" offset="0.714844"/><stop stop-opacity="1" stop-color="rgb(53.311157%, 52.374268%, 52.716064%)" offset="0.71875"/><stop stop-opacity="1" stop-color="rgb(53.120422%, 52.210999%, 52.381897%)" offset="0.722656"/><stop stop-opacity="1" stop-color="rgb(52.703857%, 51.974487%, 52.015686%)" offset="0.726562"/><stop stop-opacity="1" stop-color="rgb(52.313232%, 51.556396%, 51.780701%)" offset="0.730469"/><stop stop-opacity="1" stop-color="rgb(51.980591%, 51.165771%, 51.567078%)" offset="0.734375"/><stop stop-opacity="1" stop-color="rgb(51.789856%, 50.784302%, 51.176453%)" offset="0.738281"/><stop stop-opacity="1" stop-color="rgb(51.585388%, 50.595093%, 50.785828%)" offset="0.742188"/><stop stop-opacity="1" stop-color="rgb(51.194763%, 50.395203%, 50.395203%)" offset="0.746094"/><stop stop-opacity="1" stop-color="rgb(50.804138%, 50.004578%, 50.19989%)" offset="0.75"/><stop stop-opacity="1" stop-color="rgb(50.604248%, 49.613953%, 50.009155%)" offset="0.753906"/><stop stop-opacity="1" stop-color="rgb(50.413513%, 49.223328%, 49.623108%)" offset="0.757812"/><stop stop-opacity="1" stop-color="rgb(50.032043%, 49.012756%, 49.232483%)" offset="0.761719"/><stop stop-opacity="1" stop-color="rgb(49.641418%, 48.822021%, 48.841858%)" offset="0.765625"/><stop stop-opacity="1" stop-color="rgb(49.221802%, 48.400879%, 48.600769%)" offset="0.769531"/><stop stop-opacity="1" stop-color="rgb(48.982239%, 47.964478%, 48.35968%)" offset="0.773438"/><stop stop-opacity="1" stop-color="rgb(48.770142%, 47.636414%, 47.972107%)" offset="0.777344"/><stop stop-opacity="1" stop-color="rgb(48.379517%, 47.491455%, 47.631836%)" offset="0.78125"/><stop stop-opacity="1" stop-color="rgb(47.988892%, 47.288513%, 47.291565%)" offset="0.785156"/><stop stop-opacity="1" stop-color="rgb(47.648621%, 46.897888%, 47.099304%)" offset="0.789062"/><stop stop-opacity="1" stop-color="rgb(47.50061%, 46.507263%, 46.905518%)" offset="0.792969"/><stop stop-opacity="1" stop-color="rgb(47.309875%, 46.116638%, 46.516418%)" offset="0.796875"/><stop stop-opacity="1" stop-color="rgb(46.925354%, 45.910645%, 46.125793%)" offset="0.800781"/><stop stop-opacity="1" stop-color="rgb(46.534729%, 45.71991%, 45.735168%)" offset="0.804688"/><stop stop-opacity="1" stop-color="rgb(46.144104%, 45.344543%, 45.518494%)" offset="0.808594"/><stop stop-opacity="1" stop-color="rgb(45.903015%, 44.903564%, 45.278931%)" offset="0.8125"/><stop stop-opacity="1" stop-color="rgb(45.663452%, 44.477844%, 44.863892%)" offset="0.816406"/><stop stop-opacity="1" stop-color="rgb(45.272827%, 44.288635%, 44.473267%)" offset="0.820312"/><stop stop-opacity="1" stop-color="rgb(44.888306%, 44.082642%, 44.088745%)" offset="0.824219"/><stop stop-opacity="1" stop-color="rgb(44.697571%, 43.692017%, 43.89801%)" offset="0.828125"/><stop stop-opacity="1" stop-color="rgb(44.500732%, 43.301392%, 43.701172%)" offset="0.832031"/><stop stop-opacity="1" stop-color="rgb(44.110107%, 42.910767%, 43.310547%)" offset="0.835938"/><stop stop-opacity="1" stop-color="rgb(43.719482%, 42.706299%, 42.919922%)" offset="0.839844"/><stop stop-opacity="1" stop-color="rgb(43.328857%, 42.56134%, 42.575073%)" offset="0.84375"/><stop stop-opacity="1" stop-color="rgb(43.11676%, 42.233276%, 42.411804%)" offset="0.847656"/><stop stop-opacity="1" stop-color="rgb(42.881775%, 41.796875%, 42.175293%)" offset="0.851562"/><stop stop-opacity="1" stop-color="rgb(42.512512%, 41.357422%, 41.757202%)" offset="0.855469"/><stop stop-opacity="1" stop-color="rgb(42.166138%, 40.98053%, 41.366577%)" offset="0.859375"/><stop stop-opacity="1" stop-color="rgb(41.784668%, 40.789795%, 40.975952%)" offset="0.863281"/><stop stop-opacity="1" stop-color="rgb(41.593933%, 40.585327%, 40.589905%)" offset="0.867188"/><stop stop-opacity="1" stop-color="rgb(41.394043%, 40.194702%, 40.39917%)" offset="0.871094"/><stop stop-opacity="1" stop-color="rgb(41.003418%, 39.804077%, 40.203857%)" offset="0.875"/><stop stop-opacity="1" stop-color="rgb(40.612793%, 39.413452%, 39.813232%)" offset="0.878906"/><stop stop-opacity="1" stop-color="rgb(40.222168%, 39.208984%, 39.422607%)" offset="0.882812"/><stop stop-opacity="1" stop-color="rgb(39.831543%, 39.01825%, 39.031982%)" offset="0.886719"/><stop stop-opacity="1" stop-color="rgb(39.61792%, 38.641357%, 38.816833%)" offset="0.890625"/><stop stop-opacity="1" stop-color="rgb(39.376831%, 38.200378%, 38.577271%)" offset="0.894531"/><stop stop-opacity="1" stop-color="rgb(38.960266%, 37.763977%, 38.160706%)" offset="0.898438"/><stop stop-opacity="1" stop-color="rgb(38.569641%, 37.435913%, 37.773132%)" offset="0.902344"/><stop stop-opacity="1" stop-color="rgb(38.186646%, 37.290955%, 37.431335%)" offset="0.90625"/><stop stop-opacity="1" stop-color="rgb(37.995911%, 37.088013%, 37.091064%)" offset="0.910156"/><stop stop-opacity="1" stop-color="rgb(37.797546%, 36.697388%, 36.898804%)" offset="0.914062"/><stop stop-opacity="1" stop-color="rgb(37.45575%, 36.306763%, 36.705017%)" offset="0.917969"/><stop stop-opacity="1" stop-color="rgb(37.115479%, 35.916138%, 36.315918%)" offset="0.921875"/><stop stop-opacity="1" stop-color="rgb(36.726379%, 35.525513%, 35.925293%)" offset="0.925781"/><stop stop-opacity="1" stop-color="rgb(36.514282%, 35.314941%, 35.534668%)" offset="0.929688"/><stop stop-opacity="1" stop-color="rgb(36.323547%, 35.124207%, 35.319519%)" offset="0.933594"/><stop stop-opacity="1" stop-color="rgb(35.903931%, 34.703064%, 35.07843%)" offset="0.9375"/><stop stop-opacity="1" stop-color="rgb(35.462952%, 34.263611%, 34.663391%)" offset="0.941406"/><stop stop-opacity="1" stop-color="rgb(35.072327%, 33.872986%, 34.272766%)" offset="0.945312"/><stop stop-opacity="1" stop-color="rgb(34.687805%, 33.488464%, 33.882141%)" offset="0.949219"/><stop stop-opacity="1" stop-color="rgb(34.49707%, 33.297729%, 33.493042%)" offset="0.953125"/><stop stop-opacity="1" stop-color="rgb(34.300232%, 33.100891%, 33.299255%)" offset="0.957031"/><stop stop-opacity="1" stop-color="rgb(33.909607%, 32.710266%, 33.106995%)" offset="0.960938"/><stop stop-opacity="1" stop-color="rgb(33.518982%, 32.365417%, 32.719421%)" offset="0.964844"/><stop stop-opacity="1" stop-color="rgb(33.128357%, 32.025146%, 32.374573%)" offset="0.96875"/><stop stop-opacity="1" stop-color="rgb(32.91626%, 31.637573%, 32.034302%)" offset="0.972656"/><stop stop-opacity="1" stop-color="rgb(32.681274%, 31.396484%, 31.620789%)" offset="0.976562"/><stop stop-opacity="1" stop-color="rgb(32.313538%, 31.156921%, 31.3797%)" offset="0.980469"/><stop stop-opacity="1" stop-color="rgb(31.967163%, 30.766296%, 31.166077%)" offset="0.984375"/><stop stop-opacity="1" stop-color="rgb(31.576538%, 30.375671%, 30.775452%)" offset="0.988281"/><stop stop-opacity="1" stop-color="rgb(31.190491%, 29.989624%, 30.389404%)" offset="0.992188"/><stop stop-opacity="1" stop-color="rgb(30.999756%, 29.798889%, 30.198669%)" offset="1"/></radialGradient></defs><g clip-path="url(#2fea93c3c6)"><path fill="#1082ce" d="M 56.792969 66.558594 C 56.441406 64.660156 55.914062 62.886719 55.800781 61.085938 C 55.605469 57.742188 57.347656 55.457031 60.480469 54.296875 C 61.402344 53.957031 62.183594 53.230469 63.230469 53.0625 C 64.054688 52.921875 64.507812 53.148438 64.691406 53.941406 C 64.902344 54.820312 64.5625 55.386719 63.683594 55.457031 C 62.960938 55.515625 62.222656 55.429688 61.488281 55.445312 C 61.261719 55.445312 61.035156 55.527344 60.808594 55.601562 C 58.167969 56.480469 56.738281 58.675781 57.105469 61.597656 C 57.277344 62.972656 57.785156 64.289062 58.140625 65.636719 C 58.269531 66.121094 58.539062 66.234375 59.046875 66.160156 C 60.722656 65.90625 62.394531 65.695312 64.066406 65.523438 C 64.621094 65.46875 64.789062 65.253906 64.859375 64.730469 C 65.34375 61.738281 67.808594 59.824219 70.828125 60.050781 C 73.609375 60.265625 75.804688 62.660156 75.847656 65.507812 C 75.890625 68.375 73.664062 70.785156 70.730469 71.066406 C 68.25 71.308594 66.152344 69.863281 64.933594 67.039062 C 64.011719 67.125 63.0625 67.183594 62.109375 67.296875 C 61.160156 67.410156 60.226562 67.578125 59.191406 67.734375 C 59.304688 68.003906 59.359375 68.21875 59.460938 68.414062 C 60.820312 71.207031 62.988281 73.363281 64.988281 75.675781 C 65.046875 75.746094 65.117188 75.84375 65.171875 75.84375 C 66.535156 75.984375 67.269531 77.148438 68.320312 77.785156 C 71.636719 79.828125 77.25 79.160156 79.929688 76.355469 C 80.414062 75.84375 80.753906 75.164062 81.09375 74.527344 C 81.535156 73.691406 82 72.910156 82.910156 72.484375 C 83.105469 72.386719 83.304688 72.144531 83.390625 71.917969 C 84.566406 68.882812 85.785156 65.835938 85.914062 62.53125 C 85.984375 60.546875 86 58.492188 85.617188 56.550781 C 84.976562 53.316406 82.683594 51.714844 79.546875 52.070312 C 78.683594 52.167969 77.863281 52.695312 77.011719 52.949219 C 76.175781 53.203125 75.777344 52.949219 75.550781 52.097656 C 75.308594 51.164062 75.636719 50.636719 76.613281 50.554688 C 77.367188 50.496094 78.160156 50.113281 78.855469 50.75 C 78.910156 50.808594 79.082031 50.75 79.195312 50.738281 C 83.703125 50.511719 86.3125 52.582031 87.132812 57.046875 C 87.699219 60.121094 87.316406 63.140625 86.695312 66.148438 C 86.296875 68.089844 85.871094 70.019531 85.347656 71.917969 C 85.105469 72.78125 84.539062 73.5625 84.210938 74.414062 C 83.773438 75.546875 83.503906 76.75 83.007812 77.84375 C 81.832031 80.453125 80.425781 82.890625 77.777344 84.265625 C 78.300781 86.222656 78.882812 88.109375 79.308594 90.019531 C 80.355469 94.828125 80.46875 99.632812 78.8125 104.339844 C 76.359375 111.257812 71.367188 115.597656 64.363281 117.3125 C 53.847656 119.90625 44.363281 117.410156 36.59375 109.941406 C 26.796875 100.554688 27.179688 85.699219 37.101562 76.128906 C 41.667969 71.734375 47.210938 69.125 53.25 67.4375 C 54.484375 67.097656 55.730469 66.8125 56.792969 66.558594 Z M 57.601562 68.046875 C 50.796875 69.394531 44.332031 71.761719 38.960938 76.523438 C 34.296875 80.664062 31.402344 85.8125 31.191406 92.121094 C 30.90625 100.738281 34.535156 107.5 41.78125 112.125 C 48.203125 116.234375 55.261719 117.824219 62.835938 116.234375 C 71.410156 114.421875 77.023438 108.367188 78.214844 99.691406 C 78.855469 95.011719 78.03125 90.476562 76.570312 86.023438 C 76.289062 85.160156 76.003906 84.605469 74.984375 84.933594 C 74.757812 85.003906 74.460938 84.917969 74.203125 84.875 C 72.132812 84.578125 70.363281 83.613281 68.875 82.238281 C 67.441406 80.917969 66.207031 79.375 64.847656 77.957031 C 64.335938 77.417969 63.671875 77.035156 63.230469 76.453125 C 62.507812 75.519531 61.726562 74.667969 61.160156 73.546875 C 60.210938 71.648438 58.863281 69.933594 57.601562 68.046875 Z M 65.613281 76.3125 C 65.554688 76.410156 65.511719 76.511719 65.457031 76.625 C 66.109375 77.320312 66.734375 78.042969 67.441406 78.679688 C 68.730469 79.84375 69.980469 81.105469 71.425781 82.039062 C 74.6875 84.167969 77.449219 83.640625 79.632812 80.4375 C 80.738281 78.820312 81.460938 76.949219 82.355469 75.191406 C 82.695312 74.511719 82.992188 73.816406 83.363281 72.980469 C 82.058594 73.234375 81.632812 74.113281 81.136719 74.980469 C 80.65625 75.832031 80.171875 76.75 79.476562 77.390625 C 76.414062 80.167969 70.460938 80.578125 67.1875 77.207031 C 66.789062 76.792969 66.152344 76.609375 65.613281 76.3125 Z M 66.449219 65.496094 C 66.421875 67.691406 68.121094 69.480469 70.292969 69.535156 C 72.472656 69.578125 74.289062 67.847656 74.34375 65.695312 C 74.386719 63.453125 72.660156 61.652344 70.445312 61.625 C 68.25 61.597656 66.476562 63.3125 66.449219 65.496094 Z M 66.449219 65.496094 " fill-opacity="1" fill-rule="nonzero"/></g><path fill="#1082ce" d="M 70.433594 62.332031 C 72.21875 62.347656 73.636719 63.792969 73.636719 65.566406 C 73.636719 67.367188 72.132812 68.855469 70.347656 68.828125 C 68.53125 68.796875 67.117188 67.308594 67.144531 65.480469 C 67.1875 63.710938 68.632812 62.320312 70.433594 62.332031 Z M 70.433594 62.332031 " fill-opacity="1" fill-rule="nonzero"/><g clip-path="url(#6c3b51c630)"><g clip-path="url(#2b3c3b71af)"><g clip-path="url(#490986f1bd)"><g clip-path="url(#f86ac693a5)"><path fill="#80cc28" d="M 41.742188 1.8125 C 41.742188 1.8125 31.902344 14.308594 39.445312 19.871094 C 35.382812 15.421875 41.984375 7.039062 41.984375 7.039062 C 41.984375 7.039062 49.335938 14.773438 45.703125 19.578125 C 52.699219 13.339844 41.742188 1.8125 41.742188 1.8125 " fill-opacity="1" fill-rule="nonzero"/></g></g></g></g><g clip-path="url(#f522802d1a)"><g clip-path="url(#d4a49212e8)"><g clip-path="url(#43be7d25a6)"><g clip-path="url(#693db44ebb)"><path fill="#80cc28" d="M 75.195312 28.179688 C 75.195312 28.179688 59.429688 26.117188 58.511719 35.445312 C 60.253906 29.679688 70.835938 31.0625 70.835938 31.0625 C 70.835938 31.0625 67.953125 41.339844 61.964844 40.675781 C 70.90625 43.492188 75.195312 28.179688 75.195312 28.179688 " fill-opacity="1" fill-rule="nonzero"/></g></g></g></g><g clip-path="url(#16371e0649)"><g clip-path="url(#83f4bf5b91)"><g clip-path="url(#ddf53ec61e)"><g clip-path="url(#894745b952)"><path fill="#80cc28" d="M 10.882812 31.175781 C 10.882812 31.175781 26.386719 27.65625 28.167969 36.859375 C 25.898438 31.277344 15.492188 33.640625 15.492188 33.640625 C 15.492188 33.640625 19.320312 43.605469 25.21875 42.386719 C 16.578125 46.023438 10.882812 31.175781 10.882812 31.175781 " fill-opacity="1" fill-rule="nonzero"/></g></g></g></g><g clip-path="url(#4b3e4f04bd)"><g clip-path="url(#ee417882d0)"><g clip-path="url(#9d53d4b8ae)"><g clip-path="url(#7cfe819b16)"><path fill="#1082ce" d="M 80.3125 40.109375 C 80.3125 40.109375 70.03125 37.589844 61.089844 52.425781 C 52.878906 66.050781 55.363281 72.796875 30.0625 63.261719 C 2.992188 53.054688 25.003906 45.988281 25.003906 45.988281 C 25.003906 45.988281 9.414062 47.917969 11.78125 55.785156 C 14.503906 64.8125 38.902344 75.683594 43.585938 83.59375 C 46.75 88.9375 47.351562 104.125 38.488281 111.308594 C 38.488281 111.308594 57.21875 105.738281 62.796875 69.523438 C 67.210938 40.867188 80.3125 40.109375 80.3125 40.109375 " fill-opacity="1" fill-rule="nonzero"/></g></g></g></g><g clip-path="url(#0ffe5cf6b7)"><g clip-path="url(#812d0c15e2)"><g clip-path="url(#ff2b2a2c3b)"><g clip-path="url(#020e630736)"><path fill="#4f4c4c" d="M 53.535156 54.945312 C 52.417969 50.804688 48.53125 48.429688 44.851562 49.636719 C 41.175781 50.84375 39.09375 55.175781 40.210938 59.3125 C 41.328125 63.449219 45.214844 65.824219 48.894531 64.617188 C 52.574219 63.410156 54.652344 59.078125 53.535156 54.945312 " fill-opacity="1" fill-rule="nonzero"/></g></g></g></g><g clip-path="url(#427c909756)"><g clip-path="url(#4d6bca76b3)"><g clip-path="url(#87ab951125)"><g clip-path="url(#c590802686)"><g clip-path="url(#02a03ab71a)"><g clip-path="url(#95e1e3558e)"><g clip-path="url(#4fbe0aca37)"><g clip-path="url(#b77e758ccb)"><g clip-path="url(#b354017258)"><g clip-path="url(#21611d4b83)"><g clip-path="url(#9b339581b1)"><path fill="url(#26f25be26a)" d="M 53.652344 49.191406 L 39.265625 49.859375 L 39.972656 65.066406 L 54.359375 64.394531 Z M 53.652344 49.191406 " fill-rule="nonzero"/></g></g></g></g></g></g></g></g></g></g></g><g fill="#183e9f" fill-opacity="1"><g transform="translate(109.185301, 69.439663)"><g><path d="M 27.453125 -0.03125 L 22.734375 -0.03125 L 22.734375 -17.359375 C 22.734375 -17.679688 22.789062 -18.519531 22.90625 -19.875 C 22.832031 -19.6875 22.742188 -19.421875 22.640625 -19.078125 C 22.535156 -18.742188 22.4375 -18.4375 22.34375 -18.15625 C 22.25 -17.875 22.160156 -17.609375 22.078125 -17.359375 L 15.8125 0 L 13.234375 0 L 6.8125 -17.359375 C 6.71875 -17.609375 6.625 -17.875 6.53125 -18.15625 C 6.4375 -18.4375 6.335938 -18.742188 6.234375 -19.078125 C 6.128906 -19.421875 6.039062 -19.6875 5.96875 -19.875 C 5.96875 -19.664062 5.992188 -19.269531 6.046875 -18.6875 C 6.109375 -18.101562 6.140625 -17.660156 6.140625 -17.359375 L 6.140625 -0.03125 L 2.34375 -0.03125 L 2.34375 -23.4375 C 2.34375 -23.457031 2.300781 -23.628906 2.21875 -23.953125 C 2.132812 -24.285156 2.050781 -24.625 1.96875 -24.96875 C 1.882812 -25.320312 1.84375 -25.519531 1.84375 -25.5625 L 8.5625 -25.5625 L 14 -10.890625 C 14.257812 -10.191406 14.597656 -8.785156 15.015625 -6.671875 C 15.066406 -6.835938 15.191406 -7.425781 15.390625 -8.4375 C 15.585938 -9.445312 15.773438 -10.21875 15.953125 -10.75 L 21.296875 -25.5625 L 27.453125 -25.5625 Z M 27.453125 -0.03125 "/></g></g></g><g fill="#183e9f" fill-opacity="1"><g transform="translate(138.448093, 69.439663)"><g><path d="M 17.875 0 L 2.34375 0 L 2.34375 -23.4375 L 1.8125 -25.5625 L 17.875 -25.5625 L 17.875 -22.109375 L 7.125 -22.109375 L 7.125 -14.875 L 15.359375 -14.875 L 15.359375 -11.421875 L 7.125 -11.421875 L 7.125 -3.453125 L 17.875 -3.453125 Z M 17.875 0 "/></g></g></g><g fill="#183e9f" fill-opacity="1"><g transform="translate(157.61906, 69.439663)"><g><path d="M 23.75 -12.75 C 23.75 -8.832031 22.550781 -5.6875 20.15625 -3.3125 C 17.9375 -1.101562 15.023438 0 11.421875 0 L 2.34375 0 L 2.34375 -23.4375 C 2.34375 -23.457031 2.253906 -23.796875 2.078125 -24.453125 C 1.898438 -25.117188 1.800781 -25.488281 1.78125 -25.5625 L 11.453125 -25.5625 C 15.296875 -25.5625 18.304688 -24.390625 20.484375 -22.046875 C 22.660156 -19.710938 23.75 -16.613281 23.75 -12.75 Z M 18.578125 -12.609375 C 18.578125 -14.285156 18.34375 -15.804688 17.875 -17.171875 C 17.414062 -18.546875 16.609375 -19.710938 15.453125 -20.671875 C 14.296875 -21.628906 12.859375 -22.109375 11.140625 -22.109375 L 7.15625 -22.109375 L 7.15625 -3.453125 L 11.203125 -3.453125 C 12.484375 -3.453125 13.613281 -3.703125 14.59375 -4.203125 C 15.570312 -4.703125 16.335938 -5.390625 16.890625 -6.265625 C 17.453125 -7.140625 17.875 -8.101562 18.15625 -9.15625 C 18.4375 -10.21875 18.578125 -11.367188 18.578125 -12.609375 Z M 18.578125 -12.609375 "/></g></g></g><g fill="#183e9f" fill-opacity="1"><g transform="translate(182.028002, 69.439663)"><g><path d="M 7.125 0 L 2.3125 0 L 2.3125 -23.4375 C 2.3125 -23.457031 2.269531 -23.628906 2.1875 -23.953125 C 2.101562 -24.285156 2.019531 -24.625 1.9375 -24.96875 C 1.851562 -25.320312 1.8125 -25.519531 1.8125 -25.5625 L 7.125 -25.5625 Z M 7.125 0 "/></g></g></g><g fill="#183e9f" fill-opacity="1"><g transform="translate(191.38651, 69.439663)"><g><path d="M 21.375 -2.171875 C 19.90625 -1.253906 18.535156 -0.59375 17.265625 -0.1875 C 15.992188 0.21875 14.546875 0.421875 12.921875 0.421875 C 8.984375 0.421875 5.960938 -0.8125 3.859375 -3.28125 C 1.753906 -5.75 0.703125 -8.972656 0.703125 -12.953125 C 0.703125 -16.742188 1.804688 -19.875 4.015625 -22.34375 C 6.222656 -24.8125 9.203125 -26.046875 12.953125 -26.046875 C 14.398438 -26.046875 15.914062 -25.835938 17.5 -25.421875 C 19.082031 -25.003906 20.328125 -24.390625 21.234375 -23.578125 L 18.71875 -20.359375 C 18.09375 -21.054688 17.253906 -21.613281 16.203125 -22.03125 C 15.148438 -22.457031 14.125 -22.671875 13.125 -22.671875 C 11.40625 -22.671875 9.976562 -22.179688 8.84375 -21.203125 C 7.71875 -20.222656 6.945312 -19.046875 6.53125 -17.671875 C 6.113281 -16.296875 5.90625 -14.757812 5.90625 -13.0625 C 5.90625 -11.945312 6.050781 -10.8125 6.34375 -9.65625 C 6.632812 -8.5 7.054688 -7.398438 7.609375 -6.359375 C 8.171875 -5.328125 8.941406 -4.484375 9.921875 -3.828125 C 10.898438 -3.179688 11.992188 -2.859375 13.203125 -2.859375 C 15.367188 -2.859375 17.359375 -3.734375 19.171875 -5.484375 Z M 21.375 -2.171875 "/></g></g></g><g fill="#183e9f" fill-opacity="1"><g transform="translate(213.17647, 69.439663)"><g><path d="M 21.96875 0 L 16.796875 0 L 14.28125 -7.328125 L 6.734375 -7.328125 L 4.125 0 L 0.0625 0 L 9.109375 -25.5625 L 12.921875 -25.5625 Z M 13.125 -10.75 C 12.007812 -14.175781 11.128906 -17.085938 10.484375 -19.484375 C 9.691406 -16.578125 8.835938 -13.664062 7.921875 -10.75 Z M 13.125 -10.75 "/></g></g></g><g fill="#183e9f" fill-opacity="1"><g transform="translate(235.210863, 69.439663)"><g><path d="M 21.546875 0 L 16.09375 0 L 9.015625 -11.390625 L 7.09375 -11.390625 L 7.09375 0 L 2.3125 0 L 2.3125 -23.4375 C 2.3125 -23.476562 2.226562 -23.816406 2.0625 -24.453125 C 1.894531 -25.097656 1.800781 -25.46875 1.78125 -25.5625 L 10.546875 -25.5625 C 13.128906 -25.5625 15.210938 -25.015625 16.796875 -23.921875 C 18.378906 -22.828125 19.171875 -21.046875 19.171875 -18.578125 C 19.171875 -17.128906 18.625 -15.773438 17.53125 -14.515625 C 16.4375 -13.265625 15.164062 -12.46875 13.71875 -12.125 Z M 14.109375 -18.609375 C 14.109375 -19.703125 13.722656 -20.550781 12.953125 -21.15625 C 12.179688 -21.769531 11.226562 -22.078125 10.09375 -22.078125 L 7.09375 -22.078125 L 7.09375 -14.8125 L 9.328125 -14.8125 C 12.515625 -14.8125 14.109375 -16.078125 14.109375 -18.609375 Z M 14.109375 -18.609375 "/></g></g></g><g fill="#183e9f" fill-opacity="1"><g transform="translate(255.848466, 69.439663)"><g><path d="M 17.875 0 L 2.34375 0 L 2.34375 -23.4375 L 1.8125 -25.5625 L 17.875 -25.5625 L 17.875 -22.109375 L 7.125 -22.109375 L 7.125 -14.875 L 15.359375 -14.875 L 15.359375 -11.421875 L 7.125 -11.421875 L 7.125 -3.453125 L 17.875 -3.453125 Z M 17.875 0 "/></g></g></g><g fill="#183e9f" fill-opacity="1"><g transform="translate(150.730269, 93.893752)"><g><path d="M 11.234375 0 L 9.859375 0 L 9.859375 -8.90625 L 6.59375 0.015625 L 5.75 0.015625 L 2.46875 -8.90625 L 2.46875 0 L 1.328125 0 L 1.328125 -9.90625 L 1.109375 -10.890625 L 3.125 -10.890625 L 6.296875 -2.40625 L 9.4375 -10.890625 L 11.234375 -10.890625 Z M 11.234375 0 "/></g></g></g><g fill="#183e9f" fill-opacity="1"><g transform="translate(163.274282, 93.893752)"><g><path d="M 6.078125 -1.546875 L 6.625 -0.640625 C 5.9375 -0.0859375 5.097656 0.1875 4.109375 0.1875 C 3.035156 0.1875 2.191406 -0.171875 1.578125 -0.890625 C 0.960938 -1.609375 0.65625 -2.523438 0.65625 -3.640625 C 0.65625 -4.316406 0.765625 -4.945312 0.984375 -5.53125 C 1.210938 -6.125 1.578125 -6.617188 2.078125 -7.015625 C 2.585938 -7.421875 3.191406 -7.625 3.890625 -7.625 C 4.753906 -7.625 5.453125 -7.363281 5.984375 -6.84375 C 6.515625 -6.332031 6.78125 -5.648438 6.78125 -4.796875 C 6.78125 -4.148438 6.523438 -3.828125 6.015625 -3.828125 L 1.96875 -3.828125 L 1.96875 -3.6875 C 1.96875 -2.96875 2.160156 -2.316406 2.546875 -1.734375 C 2.929688 -1.148438 3.460938 -0.859375 4.140625 -0.859375 C 4.472656 -0.859375 4.816406 -0.921875 5.171875 -1.046875 C 5.535156 -1.171875 5.835938 -1.335938 6.078125 -1.546875 Z M 2.0625 -4.765625 L 5.1875 -4.765625 C 5.300781 -4.765625 5.375 -4.785156 5.40625 -4.828125 C 5.4375 -4.867188 5.453125 -4.953125 5.453125 -5.078125 C 5.453125 -5.523438 5.320312 -5.898438 5.0625 -6.203125 C 4.800781 -6.515625 4.453125 -6.671875 4.015625 -6.671875 C 3.535156 -6.671875 3.113281 -6.476562 2.75 -6.09375 C 2.382812 -5.707031 2.15625 -5.265625 2.0625 -4.765625 Z M 2.0625 -4.765625 "/></g></g></g><g fill="#183e9f" fill-opacity="1"><g transform="translate(170.668964, 93.893752)"><g><path d="M 7.5625 -0.03125 L 6.234375 0.140625 C 6.097656 -0.171875 6.003906 -0.515625 5.953125 -0.890625 C 5.398438 -0.171875 4.664062 0.1875 3.75 0.1875 C 2.78125 0.1875 2.023438 -0.191406 1.484375 -0.953125 C 0.941406 -1.722656 0.671875 -2.625 0.671875 -3.65625 C 0.671875 -4.75 0.957031 -5.679688 1.53125 -6.453125 C 2.101562 -7.222656 2.925781 -7.609375 4 -7.609375 C 4.769531 -7.609375 5.394531 -7.390625 5.875 -6.953125 L 5.875 -10.515625 L 5.65625 -11.40625 L 7.09375 -11.40625 L 7.09375 -2.140625 C 7.09375 -1.253906 7.25 -0.550781 7.5625 -0.03125 Z M 5.875 -1.890625 L 5.875 -4.40625 C 5.875 -5.039062 5.71875 -5.5625 5.40625 -5.96875 C 5.101562 -6.382812 4.644531 -6.59375 4.03125 -6.59375 C 3.644531 -6.59375 3.316406 -6.503906 3.046875 -6.328125 C 2.773438 -6.160156 2.566406 -5.929688 2.421875 -5.640625 C 2.273438 -5.359375 2.164062 -5.0625 2.09375 -4.75 C 2.019531 -4.4375 1.984375 -4.097656 1.984375 -3.734375 C 1.984375 -2.960938 2.15625 -2.296875 2.5 -1.734375 C 2.851562 -1.171875 3.394531 -0.890625 4.125 -0.890625 C 4.707031 -0.890625 5.289062 -1.222656 5.875 -1.890625 Z M 5.875 -1.890625 "/></g></g></g><g fill="#183e9f" fill-opacity="1"><g transform="translate(179.021661, 93.893752)"><g><path d="M 2.765625 -9.9375 C 2.765625 -9.675781 2.675781 -9.457031 2.5 -9.28125 C 2.332031 -9.113281 2.117188 -9.03125 1.859375 -9.03125 C 1.609375 -9.03125 1.394531 -9.117188 1.21875 -9.296875 C 1.039062 -9.472656 0.953125 -9.6875 0.953125 -9.9375 C 0.953125 -10.1875 1.039062 -10.398438 1.21875 -10.578125 C 1.394531 -10.765625 1.609375 -10.859375 1.859375 -10.859375 C 2.109375 -10.859375 2.320312 -10.765625 2.5 -10.578125 C 2.675781 -10.398438 2.765625 -10.1875 2.765625 -9.9375 Z M 2.5 0 L 1.25 0 L 1.25 -6.5625 C 1.25 -6.570312 1.234375 -6.640625 1.203125 -6.765625 C 1.179688 -6.898438 1.15625 -7.039062 1.125 -7.1875 C 1.09375 -7.332031 1.078125 -7.414062 1.078125 -7.4375 L 2.5 -7.4375 Z M 2.5 0 "/></g></g></g><g fill="#183e9f" fill-opacity="1"><g transform="translate(182.778874, 93.893752)"><g><path d="M 5.90625 -1.5 L 6.484375 -0.546875 C 6.015625 -0.273438 5.613281 -0.0859375 5.28125 0.015625 C 4.945312 0.128906 4.53125 0.1875 4.03125 0.1875 C 3.03125 0.1875 2.21875 -0.207031 1.59375 -1 C 0.96875 -1.789062 0.65625 -2.695312 0.65625 -3.71875 C 0.65625 -4.84375 0.972656 -5.773438 1.609375 -6.515625 C 2.242188 -7.253906 3.113281 -7.625 4.21875 -7.625 C 4.988281 -7.625 5.707031 -7.367188 6.375 -6.859375 L 5.703125 -5.984375 C 5.410156 -6.234375 5.144531 -6.40625 4.90625 -6.5 C 4.675781 -6.59375 4.382812 -6.640625 4.03125 -6.640625 C 3.375 -6.640625 2.867188 -6.34375 2.515625 -5.75 C 2.160156 -5.164062 1.984375 -4.53125 1.984375 -3.84375 C 1.984375 -3.382812 2.050781 -2.9375 2.1875 -2.5 C 2.320312 -2.070312 2.554688 -1.6875 2.890625 -1.34375 C 3.222656 -1.007812 3.625 -0.84375 4.09375 -0.84375 C 4.457031 -0.84375 4.765625 -0.890625 5.015625 -0.984375 C 5.265625 -1.085938 5.5625 -1.257812 5.90625 -1.5 Z M 5.90625 -1.5 "/></g></g></g><g fill="#183e9f" fill-opacity="1"><g transform="translate(189.514916, 93.893752)"><g><path d="M 7.203125 -1.09375 L 7.453125 -0.3125 C 7.378906 -0.28125 7.265625 -0.234375 7.109375 -0.171875 C 6.960938 -0.109375 6.835938 -0.0546875 6.734375 -0.015625 C 6.640625 0.015625 6.523438 0.046875 6.390625 0.078125 C 6.253906 0.117188 6.128906 0.140625 6.015625 0.140625 C 5.722656 0.140625 5.484375 0.046875 5.296875 -0.140625 C 5.117188 -0.335938 5.003906 -0.585938 4.953125 -0.890625 C 4.285156 -0.179688 3.535156 0.171875 2.703125 0.171875 C 2.109375 0.171875 1.617188 -0.00390625 1.234375 -0.359375 C 0.847656 -0.710938 0.65625 -1.191406 0.65625 -1.796875 C 0.65625 -3.484375 2.078125 -4.335938 4.921875 -4.359375 L 4.921875 -5.15625 C 4.921875 -6.144531 4.507812 -6.640625 3.6875 -6.640625 C 3.289062 -6.640625 2.894531 -6.5625 2.5 -6.40625 C 2.101562 -6.25 1.785156 -6.035156 1.546875 -5.765625 L 0.921875 -6.640625 C 1.734375 -7.296875 2.6875 -7.625 3.78125 -7.625 C 4.5625 -7.625 5.15625 -7.410156 5.5625 -6.984375 C 5.96875 -6.554688 6.171875 -5.953125 6.171875 -5.171875 L 6.171875 -1.453125 C 6.171875 -1.253906 6.191406 -1.109375 6.234375 -1.015625 C 6.273438 -0.929688 6.363281 -0.890625 6.5 -0.890625 C 6.613281 -0.890625 6.847656 -0.957031 7.203125 -1.09375 Z M 4.921875 -2.90625 L 4.921875 -3.390625 C 4.554688 -3.390625 4.238281 -3.375 3.96875 -3.34375 C 3.707031 -3.320312 3.398438 -3.265625 3.046875 -3.171875 C 2.691406 -3.078125 2.414062 -2.914062 2.21875 -2.6875 C 2.03125 -2.46875 1.9375 -2.1875 1.9375 -1.84375 C 1.9375 -1.519531 2.039062 -1.28125 2.25 -1.125 C 2.46875 -0.96875 2.753906 -0.890625 3.109375 -0.890625 C 3.617188 -0.890625 4.046875 -1.09375 4.390625 -1.5 C 4.742188 -1.914062 4.921875 -2.382812 4.921875 -2.90625 Z M 4.921875 -2.90625 "/></g></g></g><g fill="#183e9f" fill-opacity="1"><g transform="translate(196.909598, 93.893752)"><g><path d="M 2.5 0 L 1.25 0 L 1.25 -10.53125 C 1.25 -10.539062 1.234375 -10.609375 1.203125 -10.734375 C 1.179688 -10.867188 1.148438 -11.007812 1.109375 -11.15625 C 1.078125 -11.300781 1.0625 -11.382812 1.0625 -11.40625 L 2.5 -11.40625 Z M 2.5 0 "/></g></g></g><g fill="#183e9f" fill-opacity="1"><g transform="translate(200.66681, 93.893752)"><g/></g></g><g fill="#183e9f" fill-opacity="1"><g transform="translate(204.109675, 93.893752)"><g><path d="M 8.4375 -1.875 L 9.09375 -0.875 C 8.6875 -0.539062 8.171875 -0.28125 7.546875 -0.09375 C 6.921875 0.0820312 6.328125 0.171875 5.765625 0.171875 C 4.179688 0.171875 2.9375 -0.367188 2.03125 -1.453125 C 1.132812 -2.535156 0.6875 -3.878906 0.6875 -5.484375 C 0.6875 -7.097656 1.140625 -8.425781 2.046875 -9.46875 C 2.953125 -10.519531 4.203125 -11.046875 5.796875 -11.046875 C 6.378906 -11.046875 6.984375 -10.941406 7.609375 -10.734375 C 8.234375 -10.535156 8.71875 -10.242188 9.0625 -9.859375 L 8.28125 -9 C 8 -9.300781 7.617188 -9.539062 7.140625 -9.71875 C 6.660156 -9.90625 6.203125 -10 5.765625 -10 C 5.140625 -10 4.59375 -9.863281 4.125 -9.59375 C 3.65625 -9.332031 3.285156 -8.972656 3.015625 -8.515625 C 2.753906 -8.066406 2.554688 -7.578125 2.421875 -7.046875 C 2.285156 -6.523438 2.21875 -5.972656 2.21875 -5.390625 C 2.21875 -4.785156 2.285156 -4.222656 2.421875 -3.703125 C 2.554688 -3.191406 2.757812 -2.722656 3.03125 -2.296875 C 3.300781 -1.878906 3.671875 -1.546875 4.140625 -1.296875 C 4.617188 -1.054688 5.171875 -0.9375 5.796875 -0.9375 C 6.242188 -0.9375 6.710938 -1.019531 7.203125 -1.1875 C 7.703125 -1.363281 8.113281 -1.59375 8.4375 -1.875 Z M 8.4375 -1.875 "/></g></g></g><g fill="#183e9f" fill-opacity="1"><g transform="translate(213.450333, 93.893752)"><g><path d="M 7.203125 -1.09375 L 7.453125 -0.3125 C 7.378906 -0.28125 7.265625 -0.234375 7.109375 -0.171875 C 6.960938 -0.109375 6.835938 -0.0546875 6.734375 -0.015625 C 6.640625 0.015625 6.523438 0.046875 6.390625 0.078125 C 6.253906 0.117188 6.128906 0.140625 6.015625 0.140625 C 5.722656 0.140625 5.484375 0.046875 5.296875 -0.140625 C 5.117188 -0.335938 5.003906 -0.585938 4.953125 -0.890625 C 4.285156 -0.179688 3.535156 0.171875 2.703125 0.171875 C 2.109375 0.171875 1.617188 -0.00390625 1.234375 -0.359375 C 0.847656 -0.710938 0.65625 -1.191406 0.65625 -1.796875 C 0.65625 -3.484375 2.078125 -4.335938 4.921875 -4.359375 L 4.921875 -5.15625 C 4.921875 -6.144531 4.507812 -6.640625 3.6875 -6.640625 C 3.289062 -6.640625 2.894531 -6.5625 2.5 -6.40625 C 2.101562 -6.25 1.785156 -6.035156 1.546875 -5.765625 L 0.921875 -6.640625 C 1.734375 -7.296875 2.6875 -7.625 3.78125 -7.625 C 4.5625 -7.625 5.15625 -7.410156 5.5625 -6.984375 C 5.96875 -6.554688 6.171875 -5.953125 6.171875 -5.171875 L 6.171875 -1.453125 C 6.171875 -1.253906 6.191406 -1.109375 6.234375 -1.015625 C 6.273438 -0.929688 6.363281 -0.890625 6.5 -0.890625 C 6.613281 -0.890625 6.847656 -0.957031 7.203125 -1.09375 Z M 4.921875 -2.90625 L 4.921875 -3.390625 C 4.554688 -3.390625 4.238281 -3.375 3.96875 -3.34375 C 3.707031 -3.320312 3.398438 -3.265625 3.046875 -3.171875 C 2.691406 -3.078125 2.414062 -2.914062 2.21875 -2.6875 C 2.03125 -2.46875 1.9375 -2.1875 1.9375 -1.84375 C 1.9375 -1.519531 2.039062 -1.28125 2.25 -1.125 C 2.46875 -0.96875 2.753906 -0.890625 3.109375 -0.890625 C 3.617188 -0.890625 4.046875 -1.09375 4.390625 -1.5 C 4.742188 -1.914062 4.921875 -2.382812 4.921875 -2.90625 Z M 4.921875 -2.90625 "/></g></g></g><g fill="#183e9f" fill-opacity="1"><g transform="translate(220.845014, 93.893752)"><g><path d="M 2.453125 0 L 1.21875 0 L 1.21875 -5.390625 C 1.21875 -6.265625 1.054688 -6.9375 0.734375 -7.40625 L 2.078125 -7.578125 C 2.253906 -7.140625 2.367188 -6.675781 2.421875 -6.1875 C 2.691406 -6.601562 3.046875 -6.9375 3.484375 -7.1875 C 3.921875 -7.445312 4.378906 -7.578125 4.859375 -7.578125 L 4.5625 -6.25 C 3.757812 -6.25 3.054688 -5.8125 2.453125 -4.9375 Z M 2.453125 0 "/></g></g></g><g fill="#183e9f" fill-opacity="1"><g transform="translate(226.069195, 93.893752)"><g><path d="M 6.078125 -1.546875 L 6.625 -0.640625 C 5.9375 -0.0859375 5.097656 0.1875 4.109375 0.1875 C 3.035156 0.1875 2.191406 -0.171875 1.578125 -0.890625 C 0.960938 -1.609375 0.65625 -2.523438 0.65625 -3.640625 C 0.65625 -4.316406 0.765625 -4.945312 0.984375 -5.53125 C 1.210938 -6.125 1.578125 -6.617188 2.078125 -7.015625 C 2.585938 -7.421875 3.191406 -7.625 3.890625 -7.625 C 4.753906 -7.625 5.453125 -7.363281 5.984375 -6.84375 C 6.515625 -6.332031 6.78125 -5.648438 6.78125 -4.796875 C 6.78125 -4.148438 6.523438 -3.828125 6.015625 -3.828125 L 1.96875 -3.828125 L 1.96875 -3.6875 C 1.96875 -2.96875 2.160156 -2.316406 2.546875 -1.734375 C 2.929688 -1.148438 3.460938 -0.859375 4.140625 -0.859375 C 4.472656 -0.859375 4.816406 -0.921875 5.171875 -1.046875 C 5.535156 -1.171875 5.835938 -1.335938 6.078125 -1.546875 Z M 2.0625 -4.765625 L 5.1875 -4.765625 C 5.300781 -4.765625 5.375 -4.785156 5.40625 -4.828125 C 5.4375 -4.867188 5.453125 -4.953125 5.453125 -5.078125 C 5.453125 -5.523438 5.320312 -5.898438 5.0625 -6.203125 C 4.800781 -6.515625 4.453125 -6.671875 4.015625 -6.671875 C 3.535156 -6.671875 3.113281 -6.476562 2.75 -6.09375 C 2.382812 -5.707031 2.15625 -5.265625 2.0625 -4.765625 Z M 2.0625 -4.765625 "/></g></g></g></svg>